<svg width="120" height="120" viewBox="0 0 100 100" xmlns="http://www.w3.org/2000/svg">
  <rect width="100" height="100" fill="#18181b" rx="20" />
  <path d="M 30 65 C 20 80, 18 100, 18 100 L 82 100 C 82 100, 80 80, 70 65 Z" fill="#fff" />
  <path d="M 38 35 C 22 5, 48 5, 48 38 Z" fill="#fff" />
  <path d="M 62 35 C 78 5, 52 5, 52 38 Z" fill="#fff" />
  <circle cx="50" cy="48" r="26" fill="#fff" />
  <circle cx="34" cy="56" r="4" fill="#ffb7c5" opacity="0.4" />
  <circle cx="66" cy="56" r="4" fill="#ffb7c5" opacity="0.4" />
  <path d="M 38 40 L 39.5 43.5 L 43 43.5 L 40.5 46 L 41.5 49.5 L 38 47.5 L 34.5 49.5 L 35.5 46 L 33 43.5 L 36.5 43.5 Z" fill="#18181b" />
  <path d="M 62 40 L 63.5 43.5 L 67 43.5 L 64.5 46 L 65.5 49.5 L 62 47.5 L 58.5 49.5 L 59.5 46 L 57 43.5 L 60.5 43.5 Z" fill="#18181b" />
  <path d="M 46 54 Q 48 57 50 54 Q 52 57 54 54" stroke="#18181b" stroke-width="2" fill="none" stroke-linecap="round" />
  <path d="M 24 63 Q 50 83 76 63 L 78 81 Q 50 101 22 81 Z" fill="#18181b" />
  <path d="M 25 72 Q 50 92 75 72" stroke="#fff" stroke-width="5" stroke-dasharray="9 4" fill="none" opacity="0.9" />
</svg>
